{
  "accessors": [
    {
      "bufferView": 2,
      "componentType": 5126,
      "count": 39902,
      "max": [
        8.137375831604004,
        7.494342803955078,
        3.6296610832214355
      ],
      "min": [
        -7.585020065307617,
        -7.391609191894531,
        -3.147763967514038
      ],
      "type": "VEC3"
    },
    {
      "bufferView": 2,
      "byteOffset": 478824,
      "componentType": 5126,
      "count": 39902,
      "max": [
        0.999909520149231,
        0.9996899962425232,
        0.9998088479042053
      ],
      "min": [
        -0.9999570846557617,
        -0.9998278021812439,
        -0.9998077750205994
      ],
      "type": "VEC3"
    },
    {
      "bufferView": 1,
      "componentType": 5126,
      "count": 39902,
      "max": [
        0.7164009809494019,
        0.8858979940414429
      ],
      "min": [
        0.3233569860458374,
        0.2835339903831482
      ],
      "type": "VEC2"
    },
    {
      "bufferView": 0,
      "componentType": 5125,
      "count": 55722,
      "type": "SCALAR"
    },
    {
      "bufferView": 2,
      "byteOffset": 957648,
      "componentType": 5126,
      "count": 15773,
      "max": [
        3.4674129486083984,
        3.382848024368286,
        3.409029960632324
      ],
      "min": [
        -3.321129083633423,
        -3.5787320137023926,
        -3.3342020511627197
      ],
      "type": "VEC3"
    },
    {
      "bufferView": 2,
      "byteOffset": 1146924,
      "componentType": 5126,
      "count": 15773,
      "max": [
        0.9995887875556946,
        0.999825656414032,
        0.9997406601905823
      ],
      "min": [
        -0.9993546009063721,
        -0.9998606443405151,
        -0.998516321182251
      ],
      "type": "VEC3"
    },
    {
      "bufferView": 1,
      "byteOffset": 319216,
      "componentType": 5126,
      "count": 15773,
      "max": [
        0.7154350280761719,
        0.885312020778656
      ],
      "min": [
        0.3233569860458374,
        0.2835339903831482
      ],
      "type": "VEC2"
    },
    {
      "bufferView": 0,
      "byteOffset": 222888,
      "componentType": 5125,
      "count": 21273,
      "type": "SCALAR"
    },
    {
      "bufferView": 2,
      "byteOffset": 1336200,
      "componentType": 5126,
      "count": 18100,
      "max": [
        8.074695587158203,
        7.607513904571533,
        3.048408031463623
      ],
      "min": [
        -7.459894180297852,
        -7.354435920715332,
        -2.825118064880371
      ],
      "type": "VEC3"
    },
    {
      "bufferView": 2,
      "byteOffset": 1553400,
      "componentType": 5126,
      "count": 18100,
      "max": [
        0.9997873902320862,
        0.9999933242797852,
        0.9999858140945435
      ],
      "min": [
        -0.9999542236328125,
        -0.9989803433418274,
        -0.9998360276222229
      ],
      "type": "VEC3"
    },
    {
      "bufferView": 1,
      "byteOffset": 445400,
      "componentType": 5126,
      "count": 18100,
      "max": [
        0.7163990139961243,
        0.8859000205993652
      ],
      "min": [
        0.3233579993247986,
        0.28371700644493103
      ],
      "type": "VEC2"
    },
    {
      "bufferView": 0,
      "byteOffset": 307980,
      "componentType": 5125,
      "count": 24690,
      "type": "SCALAR"
    },
    {
      "bufferView": 2,
      "byteOffset": 1770600,
      "componentType": 5126,
      "count": 21116,
      "max": [
        8.170734405517578,
        7.35133695602417,
        2.9581658840179443
      ],
      "min": [
        -7.89522123336792,
        -7.573640823364258,
        -2.500875949859619
      ],
      "type": "VEC3"
    },
    {
      "bufferView": 2,
      "byteOffset": 2023992,
      "componentType": 5126,
      "count": 21116,
      "max": [
        0.9999988079071045,
        0.9991078972816467,
        0.9992409348487854
      ],
      "min": [
        -0.9997631907463074,
        -0.9991804361343384,
        -0.9997764229774475
      ],
      "type": "VEC3"
    },
    {
      "bufferView": 1,
      "byteOffset": 590200,
      "componentType": 5126,
      "count": 21116,
      "max": [
        0.7164660096168518,
        0.8859000205993652
      ],
      "min": [
        0.3233569860458374,
        0.28371700644493103
      ],
      "type": "VEC2"
    },
    {
      "bufferView": 0,
      "byteOffset": 406740,
      "componentType": 5125,
      "count": 28770,
      "type": "SCALAR"
    },
    {
      "bufferView": 2,
      "byteOffset": 2277384,
      "componentType": 5126,
      "count": 200,
      "max": [
        3.448033094406128,
        3.4740889072418213,
        3.2931430339813232
      ],
      "min": [
        -3.2572100162506104,
        -3.4286561012268066,
        -3.2954390048980713
      ],
      "type": "VEC3"
    },
    {
      "bufferView": 2,
      "byteOffset": 2279784,
      "componentType": 5126,
      "count": 200,
      "max": [
        0.9786790013313293,
        0.9543682336807251,
        0.9984493851661682
      ],
      "min": [
        -0.9998345971107483,
        -0.9702521562576294,
        -0.9942342638969421
      ],
      "type": "VEC3"
    },
    {
      "bufferView": 1,
      "byteOffset": 759128,
      "componentType": 5126,
      "count": 200,
      "max": [
        0.22475500404834747,
        0.9813960194587708
      ],
      "min": [
        0.014766000211238861,
        0.7714080214500427
      ],
      "type": "VEC2"
    },
    {
      "bufferView": 0,
      "byteOffset": 521820,
      "componentType": 5125,
      "count": 258,
      "type": "SCALAR"
    }
  ],
  "asset": {
    "extras": {
      "author": "chiaragiacomuzzo (https://sketchfab.com/chiara_giacomuzzo)",
      "license": "CC-BY-4.0 (http://creativecommons.org/licenses/by/4.0/)",
      "source": "https://sketchfab.com/3d-models/asteroids-planet-lowpoly-69a91b856ec24b3ea53662b563e9f9dc",
      "title": "Asteroids planet lowpoly"
    },
    "generator": "Sketchfab-12.68.0",
    "version": "2.0"
  },
  "bufferViews": [
    {
      "buffer": 0,
      "byteLength": 522852,
      "name": "floatBufferViews",
      "target": 34963
    },
    {
      "buffer": 0,
      "byteLength": 760728,
      "byteOffset": 522852,
      "byteStride": 8,
      "name": "floatBufferViews",
      "target": 34962
    },
    {
      "buffer": 0,
      "byteLength": 2282184,
      "byteOffset": 1283580,
      "byteStride": 12,
      "name": "floatBufferViews",
      "target": 34962
    }
  ],
  "buffers": [
    {
      "byteLength": 3565764,
      "uri": "scene.bin"
    }
  ],
  "materials": [
    {
      "doubleSided": true,
      "name": "asteroidi.001",
      "pbrMetallicRoughness": {
        "baseColorFactor": [
          0.09530746663096466,
          0.0295568344378088,
          0.028426039504420793,
          1.0
        ],
        "metallicFactor": 0.0,
        "roughnessFactor": 0.6
      }
    },
    {
      "doubleSided": true,
      "name": "mattone",
      "pbrMetallicRoughness": {
        "baseColorFactor": [
          0.35153259950043925,
          0.1529261519961502,
          0.14126329114027164,
          1.0
        ],
        "metallicFactor": 0.0,
        "roughnessFactor": 0.6
      }
    },
    {
      "doubleSided": true,
      "name": "mattone.002",
      "pbrMetallicRoughness": {
        "baseColorFactor": [
          0.12477181756095049,
          0.08437621154414879,
          0.09989872824711389,
          1.0
        ],
        "metallicFactor": 0.0,
        "roughnessFactor": 0.2029132843017578
      }
    },
    {
      "doubleSided": true,
      "name": "toon_shader_fico",
      "pbrMetallicRoughness": {
        "baseColorFactor": [
          0.24620132670783548,
          0.06662593864377286,
          0.05951123816298117,
          1.0
        ],
        "metallicFactor": 0.0,
        "roughnessFactor": 0.6
      }
    }
  ],
  "meshes": [
    {
      "name": "Object_0",
      "primitives": [
        {
          "attributes": {
            "NORMAL": 1,
            "POSITION": 0,
            "TEXCOORD_0": 2
          },
          "indices": 3,
          "material": 0,
          "mode": 4
        }
      ]
    },
    {
      "name": "Object_1",
      "primitives": [
        {
          "attributes": {
            "NORMAL": 5,
            "POSITION": 4,
            "TEXCOORD_0": 6
          },
          "indices": 7,
          "material": 0,
          "mode": 4
        }
      ]
    },
    {
      "name": "Object_2",
      "primitives": [
        {
          "attributes": {
            "NORMAL": 9,
            "POSITION": 8,
            "TEXCOORD_0": 10
          },
          "indices": 11,
          "material": 1,
          "mode": 4
        }
      ]
    },
    {
      "name": "Object_3",
      "primitives": [
        {
          "attributes": {
            "NORMAL": 13,
            "POSITION": 12,
            "TEXCOORD_0": 14
          },
          "indices": 15,
          "material": 2,
          "mode": 4
        }
      ]
    },
    {
      "name": "Object_4",
      "primitives": [
        {
          "attributes": {
            "NORMAL": 17,
            "POSITION": 16,
            "TEXCOORD_0": 18
          },
          "indices": 19,
          "material": 3,
          "mode": 4
        }
      ]
    }
  ],
  "nodes": [
    {
      "children": [
        1
      ],
      "matrix": [
        1.0,
        0.0,
        0.0,
        0.0,
        0.0,
        2.220446049250313e-16,
        -1.0,
        0.0,
        0.0,
        1.0,
        2.220446049250313e-16,
        0.0,
        0.0,
        0.0,
        0.0,
        1.0
      ],
      "name": "Sketchfab_model"
    },
    {
      "children": [
        2,
        3,
        4,
        5,
        6
      ],
      "name": "ASTEROIDI.obj.cleaner.materialmerger.gles"
    },
    {
      "mesh": 0,
      "name": "Object_2"
    },
    {
      "mesh": 1,
      "name": "Object_3"
    },
    {
      "mesh": 2,
      "name": "Object_4"
    },
    {
      "mesh": 3,
      "name": "Object_5"
    },
    {
      "mesh": 4,
      "name": "Object_6"
    }
  ],
  "scene": 0,
  "scenes": [
    {
      "name": "Sketchfab_Scene",
      "nodes": [
        0
      ]
    }
  ]
}
