{
	"asset":{
		"generator":"Khronos glTF Blender I/O v3.6.27",
		"version":"2.0"
	},
	"scene":0,
	"scenes":[
		{
			"name":"Scene",
			"nodes":[
				2
			]
		}
	],
	"nodes":[
		{
			"mesh":0,
			"name":"Object_2",
			"rotation":[
				0,
				0,
				0.5258504152297974,
				0.8505770564079285
			],
			"translation":[
				4.109714031219482,
				0.876251757144928,
				0
			]
		},
		{
			"children":[
				0
			],
			"name":"point2.obj.cleaner.materialmerger.gles"
		},
		{
			"children":[
				1
			],
			"name":"Sketchfab_model",
			"rotation":[
				-0.707026481628418,
				0.010670068673789501,
				0.010670076124370098,
				0.7070261240005493
			]
		}
	],
	"materials":[
		{
			"doubleSided":true,
			"name":"material_1",
			"pbrMetallicRoughness":{
				"baseColorTexture":{
					"index":0
				},
				"metallicFactor":0
			}
		}
	],
	"meshes":[
		{
			"name":"Object_0",
			"primitives":[
				{
					"attributes":{
						"POSITION":0,
						"NORMAL":1,
						"TEXCOORD_0":2
					},
					"indices":3,
					"material":0
				}
			]
		}
	],
	"textures":[
		{
			"sampler":0,
			"source":0
		}
	],
	"images":[
		{
			"mimeType":"image/png",
			"name":"material_1_diffuse",
			"uri":"material_1_diffuse.png"
		}
	],
	"accessors":[
		{
			"bufferView":0,
			"componentType":5126,
			"count":35627,
			"max":[
				39.300262451171875,
				59.81735610961914,
				197.91014099121094
			],
			"min":[
				-84.7505874633789,
				-37.62516784667969,
				-0.3254188299179077
			],
			"type":"VEC3"
		},
		{
			"bufferView":1,
			"componentType":5126,
			"count":35627,
			"type":"VEC3"
		},
		{
			"bufferView":2,
			"componentType":5126,
			"count":35627,
			"type":"VEC2"
		},
		{
			"bufferView":3,
			"componentType":5123,
			"count":148107,
			"type":"SCALAR"
		}
	],
	"bufferViews":[
		{
			"buffer":0,
			"byteLength":427524,
			"byteOffset":0,
			"target":34962
		},
		{
			"buffer":0,
			"byteLength":427524,
			"byteOffset":427524,
			"target":34962
		},
		{
			"buffer":0,
			"byteLength":285016,
			"byteOffset":855048,
			"target":34962
		},
		{
			"buffer":0,
			"byteLength":296214,
			"byteOffset":1140064,
			"target":34963
		}
	],
	"samplers":[
		{
			"magFilter":9729,
			"minFilter":9987
		}
	],
	"buffers":[
		{
			"byteLength":1436280,
			"uri":"scene3.bin"
		}
	]
}
